<?xml version="1.0" encoding="UTF-8" standalone="no"?>
<!-- Created with Inkscape (http://www.inkscape.org/) -->

<svg
   xmlns:dc="http://purl.org/dc/elements/1.1/"
   xmlns:cc="http://creativecommons.org/ns#"
   xmlns:rdf="http://www.w3.org/1999/02/22-rdf-syntax-ns#"
   xmlns:svg="http://www.w3.org/2000/svg"
   xmlns="http://www.w3.org/2000/svg"
   xmlns:xlink="http://www.w3.org/1999/xlink"
   xmlns:sodipodi="http://sodipodi.sourceforge.net/DTD/sodipodi-0.dtd"
   xmlns:inkscape="http://www.inkscape.org/namespaces/inkscape"
   id="svg3263"
   sodipodi:docname="cmd.svg"
   viewBox="0 0 744.09 1052.4"
   version="1.1"
   inkscape:version="0.48.4 r9939"
   width="100%"
   height="100%">
  <defs
     id="defs3265">
    <filter
       id="filter4172"
       height="1.3891"
       width="1.2631"
       y="-.19455"
       x="-.13155"
       inkscape:collect="always">
      <feGaussianBlur
         id="feGaussianBlur4174"
         stdDeviation="8.1029346"
         inkscape:collect="always" />
    </filter>
    <radialGradient
       inkscape:collect="always"
       xlink:href="#linearGradient35488"
       id="radialGradient35494"
       cx="28.019106"
       cy="38.98439"
       fx="28.019106"
       fy="38.98439"
       r="15.467961"
       gradientTransform="matrix(1,0,0,0.342857,0,25.61831)"
       gradientUnits="userSpaceOnUse" />
    <linearGradient
       inkscape:collect="always"
       id="linearGradient35488">
      <stop
         style="stop-color:black;stop-opacity:1;"
         offset="0"
         id="stop35490" />
      <stop
         style="stop-color:black;stop-opacity:0;"
         offset="1"
         id="stop35492" />
    </linearGradient>
    <linearGradient
       inkscape:collect="always"
       xlink:href="#linearGradient39155"
       id="linearGradient39161"
       x1="31.1875"
       y1="18.875"
       x2="29.875"
       y2="34.375"
       gradientUnits="userSpaceOnUse" />
    <linearGradient
       id="linearGradient39155">
      <stop
         style="stop-color:white;stop-opacity:1;"
         offset="0"
         id="stop39157" />
      <stop
         style="stop-color:#dadada;stop-opacity:1;"
         offset="1"
         id="stop39159" />
    </linearGradient>
    <linearGradient
       inkscape:collect="always"
       xlink:href="#linearGradient3564"
       id="linearGradient34576"
       gradientUnits="userSpaceOnUse"
       x1="185.9903"
       y1="193.33229"
       x2="106.04736"
       y2="-134.32658"
       gradientTransform="matrix(0.06818845,0,0,0.06818845,22.51112,27.02885)" />
    <linearGradient
       inkscape:collect="always"
       id="linearGradient3564">
      <stop
         style="stop-color:white;stop-opacity:1;"
         offset="0"
         id="stop3566" />
      <stop
         style="stop-color:white;stop-opacity:0;"
         offset="1"
         id="stop3568" />
    </linearGradient>
    <radialGradient
       inkscape:collect="always"
       xlink:href="#linearGradient39171"
       id="radialGradient39177"
       cx="26.109201"
       cy="19.668886"
       fx="26.109201"
       fy="19.668886"
       r="20.278975"
       gradientTransform="matrix(1.647222,0,0,1.26792,-15.47413,-5.79794)"
       gradientUnits="userSpaceOnUse" />
    <linearGradient
       inkscape:collect="always"
       id="linearGradient39171">
      <stop
         style="stop-color:white;stop-opacity:1;"
         offset="0"
         id="stop39173" />
      <stop
         style="stop-color:white;stop-opacity:0;"
         offset="1"
         id="stop39175" />
    </linearGradient>
  </defs>
  <sodipodi:namedview
     id="base"
     bordercolor="#666666"
     inkscape:pageshadow="2"
     inkscape:window-y="-8"
     pagecolor="#ffffff"
     inkscape:window-height="1057"
     inkscape:window-maximized="1"
     inkscape:zoom="1"
     inkscape:window-x="1912"
     showgrid="false"
     borderopacity="1.0"
     inkscape:current-layer="layer1"
     inkscape:cx="478.06195"
     inkscape:cy="370.11816"
     inkscape:window-width="1827"
     inkscape:pageopacity="0.0"
     inkscape:document-units="px" />
  <g
     id="layer1"
     inkscape:label="Layer 1"
     inkscape:groupmode="layer">
    <rect
       id="rect3271"
       style="color:#000000;fill:#1a1a1a;stroke:#bcbbba;stroke-width:22.08504105;stroke-linejoin:round"
       ry="65.283508"
       height="538.14496"
       width="538.14496"
       y="308.28754"
       x="125.21752"
       inkscape:export-filename="D:\Projekte\C#\Blender Batching\Blender Batching\Ressources\icon.png"
       inkscape:export-xdpi="82.25"
       inkscape:export-ydpi="82.25" />
    <text
       id="text4127-6"
       style="font-size:40px;line-height:125%;letter-spacing:0px;word-spacing:0px;fill:#ffffff;filter:url(#filter4172);font-family:Sans"
       xml:space="preserve"
       y="465.04187"
       x="139.36914"
       sodipodi:linespacing="125%"
       inkscape:export-filename="D:\Projekte\C#\Blender Batching\Blender Batching\Ressources\icon.png"
       inkscape:export-xdpi="82.25"
       inkscape:export-ydpi="82.25">       <tspan
   id="tspan4129-7"
   sodipodi:role="line"
   x="139.36914"
   style="font-size:120px;font-weight:bold;fill:#ffffff"
   y="465.04187">&gt;_</tspan>     </text>
    <text
       id="text4127"
       style="font-size:40px;line-height:125%;letter-spacing:0px;word-spacing:0px;fill:#ffffff;font-family:Sans"
       xml:space="preserve"
       y="464.36218"
       x="139"
       sodipodi:linespacing="125%"
       inkscape:export-filename="D:\Projekte\C#\Blender Batching\Blender Batching\Ressources\icon.png"
       inkscape:export-xdpi="82.25"
       inkscape:export-ydpi="82.25">       <tspan
   id="tspan4129"
   sodipodi:role="line"
   x="139"
   style="font-size:120px;font-weight:bold;fill:#ffffff"
   y="464.36218">&gt;_</tspan>     </text>
    <g
       style="display:inline;enable-background:new"
       transform="matrix(7.6792415,0,0,7.6792415,245.50848,466.25393)"
       inkscape:label="Layer 1"
       id="g5323"
       inkscape:export-filename="D:\Projekte\C#\Blender Batching\Blender Batching\Ressources\icon.png"
       inkscape:export-xdpi="82.25"
       inkscape:export-ydpi="82.25">
      <g
         id="g4390">
        <path
           transform="matrix(1.274286,0,0,1.377124,-7.569123,-16.70193)"
           d="m 43.487067,38.98439 c 0,2.928932 -6.925242,5.303301 -15.467961,5.303301 -8.542719,0 -15.467961,-2.374369 -15.467961,-5.303301 0,-2.928932 6.925242,-5.303301 15.467961,-5.303301 8.542719,0 15.467961,2.374369 15.467961,5.303301 z"
           sodipodi:ry="5.3033009"
           sodipodi:rx="15.467961"
           sodipodi:cy="38.98439"
           sodipodi:cx="28.019106"
           id="path35486"
           style="opacity:0.54857142;fill:url(#radialGradient35494);fill-opacity:1;fill-rule:nonzero;stroke:none;stroke-width:1;marker:none;visibility:visible;display:inline;overflow:visible;enable-background:accumulate"
           sodipodi:type="arc" />
        <path
           inkscape:connector-curvature="0"
           sodipodi:nodetypes="csssssssssscccsscccscccssccc"
           d="m 16.048489,28.093447 c 0.0098,0.576682 0.196474,1.697902 0.471116,2.577425 0.581566,1.854137 1.56684,3.572658 2.939126,5.086496 1.407488,1.553118 3.138519,2.803227 5.139315,3.68976 2.105357,0.931573 4.384795,1.407488 6.750134,1.403741 2.365339,-0.005 4.644601,-0.488686 6.74896,-1.427017 2.00002,-0.895288 3.731043,-2.148391 5.13754,-3.705517 1.369207,-1.519844 2.352576,-3.241114 2.934089,-5.096258 0.294262,-0.938353 0.476921,-1.889392 0.553238,-2.845308 0.07331,-0.939306 0.04204,-1.883511 -0.09183,-2.823792 -0.259981,-1.835599 -0.896294,-3.556847 -1.872652,-5.12758 -0.895541,-1.441699 -2.047808,-2.70454 -3.417268,-3.766975 0,0 0.002,-0.002 0.002,-0.002 0,0 -13.828458,-10.6197195 -13.828458,-10.6197195 -0.01176,-0.00978 -0.02252,-0.019551 -0.03529,-0.028344 -0.909003,-0.6959264 -2.434775,-0.6939758 -3.431728,0.00488 -1.01067,0.7057021 -1.091821,1.8092613 -0.195527,2.5482146 1.899775,1.4997633 3.792068,3.0680399 5.702368,4.5676189 0,0 -17.551681,-0.01171 -17.551681,-0.01171 -1.994685,0 -3.1682604,0.947915 -3.4153942,2.333683 -0.2180771,1.222836 0.7479213,2.738129 2.4800212,2.738129 2.956573,0.0039 5.942111,-0.0069 8.909215,-0.01272 0,0 -15.901723,11.764162 -15.901723,11.764162 -0.020527,0.01564 -0.041053,0.02933 -0.06158,0.04497 -1.4974197,1.148389 -1.9831951,3.059322 -1.0399808,4.268393 0.9598323,1.22959 2.9977653,1.230588 4.5147288,0.006 0,0 8.677593,-7.102098 8.677593,-7.102098 0,0 -0.12511,0.959824 -0.116333,1.535532 z"
           id="path2482"
           style="fill:#f57900;fill-rule:evenodd;stroke:#ce5c00;stroke-width:1;stroke-linecap:round;stroke-linejoin:round;stroke-miterlimit:4;stroke-dasharray:none" />
        <path
           transform="matrix(0.821621,0,0,0.839506,5.875686,3.882724)"
           d="m 42.75,25.75 c 0,5.591883 -5.176708,10.125 -11.5625,10.125 -6.385792,0 -11.5625,-4.533117 -11.5625,-10.125 0,-5.591883 5.176708,-10.125 11.5625,-10.125 6.385792,0 11.5625,4.533117 11.5625,10.125 z"
           sodipodi:ry="10.125"
           sodipodi:rx="11.5625"
           sodipodi:cy="25.75"
           sodipodi:cx="31.1875"
           id="path39153"
           style="fill:url(#linearGradient39161);fill-opacity:1;fill-rule:nonzero;stroke:none;stroke-width:1;marker:none;visibility:visible;display:inline;overflow:visible;enable-background:accumulate"
           sodipodi:type="arc" />
        <path
           inkscape:connector-curvature="0"
           sodipodi:nodetypes="cssssscscczccsccssssccscccccscssc"
           id="path3562"
           d="m 25.796988,6.0267804 c -0.404852,5.53e-4 -0.818619,0.1256944 -1.095272,0.3196267 -7.14e-4,7.142e-4 -0.0014,0.00143 -0.0021,0.00213 -0.280209,0.1956525 -0.336859,0.3680061 -0.345206,0.4602725 -0.0083,0.092266 -0.01324,0.1672776 0.189655,0.3345475 0.01899,0.015735 0.03747,0.032076 0.0554,0.049009 0.124258,0.1010285 5.704394,4.6389489 5.704394,4.6389489 0.373658,0.304091 0.51584,0.810232 0.355197,1.264415 -0.160635,0.454191 -0.589422,0.382732 -1.071174,0.384283 -5.634142,0.05114 -17.60967,0.01918 -17.60967,0.01918 -0.952967,6.38e-4 -2.3472795,0.516793 -2.4135719,1.585761 -0.063562,1.024947 0.9093059,1.457499 1.5782589,1.457499 0,0 8.830403,-0.01705 8.830403,-0.01705 0.488364,-5.91e-4 0.922857,0.221532 1.080466,0.683755 0.15761,0.462231 0.0033,0.53156 -0.383664,0.829439 0,0 -15.9006939,12.205735 -15.9006939,12.205735 -0.00142,0.0014 -0.00284,0.0028 -0.00426,0.0043 -0.064038,0.04879 -0.084772,0.06226 -0.061795,0.04476 -0.5536756,0.424618 -0.8961097,0.98072 -1.0185711,1.476701 -0.1224537,0.495981 -0.04659,0.882548 0.1875202,1.182646 0.4788333,0.613413 1.8577618,0.820499 2.9863998,-0.09061 0,0 8.672724,-7.09799 8.672724,-7.09799 0.361955,-0.295752 0.77937,-0.340606 1.187723,-0.113169 0.408345,0.227437 0.548124,0.592694 0.487243,1.05613 0,0 -0.112502,0.980045 -0.10655,1.370159 0.192357,2.636407 1.448328,5.003383 3.115366,7.003128 2.877746,3.172809 6.937778,4.644674 11.130659,4.808308 4.20342,-0.04394 8.318367,-1.795011 11.174847,-4.89086 C 47.739634,28.611968 46.32987,21.589741 40.640807,16.960414 36.14442,13.301596 31.42752,9.8792042 26.81986,6.3400569 c -0.0043,-0.00352 -0.0086,-0.00707 -0.01279,-0.010651 -0.0072,-0.00489 -0.01427,-0.00987 -0.02131,-0.014921 -0.210578,-0.1612268 -0.584681,-0.288265 -0.988772,-0.2877045 z"
           style="opacity:0.4857143;fill:none;stroke:url(#linearGradient34576);stroke-width:1;stroke-linecap:butt;stroke-linejoin:miter;stroke-miterlimit:4;stroke-opacity:1;stroke-dasharray:none" />
        <path
           d="m 25.653978,25.09146 c 0.07926,-1.448773 0.78688,-2.727609 1.850623,-3.632978 1.046825,-0.890007 2.452533,-1.433435 3.988056,-1.433435 1.534545,0 2.940254,0.543428 3.986835,1.433435 1.064917,0.905369 1.771683,2.183246 1.851868,3.632019 0.08215,1.491022 -0.513877,2.875471 -1.558501,3.900856 -1.064918,1.044581 -2.583328,1.700332 -4.280202,1.700332 -1.697851,0 -3.216262,-0.655751 -4.281129,-1.700332 -1.045701,-1.025385 -1.639667,-2.409834 -1.55755,-3.899897 z"
           id="path2478"
           style="fill:#0d528b;fill-rule:evenodd;stroke:none"
           inkscape:connector-curvature="0" />
        <path
           inkscape:connector-curvature="0"
           sodipodi:nodetypes="cccczscccssssscsscsss"
           id="path39166"
           d="m 24.59375,7.1875 c 0,0 5.71875,4.65625 5.71875,4.65625 0.495581,0.404913 0.140487,1.262555 -0.78125,1.25 -5.634142,0.05114 -17.375,-0.03125 -17.375,-0.03125 -0.83333,0 -2.34375,0.577974 -2.34375,1.6875 0,1.109526 0.674797,1.256826 1.34375,1.25092 10e-7,0 8.8125,0 8.8125,0 1.45524,0.03051 1.617186,1.227393 0.6875,2.03033 0,0 -15.875,12.21875 -15.875,12.21875 -0.00142,0.0014 -0.029829,-0.0014 -0.03125,0 -0.064037,0.04879 -0.054226,0.04875 -0.03125,0.03125 -0.5536758,0.424619 -0.9087886,1.004019 -1.03125,1.5 -0.1224536,0.495981 -0.04661,0.856152 0.1875,1.15625 0.4788333,0.613413 1.7334178,0.312915 2.8620558,-0.598192 10e-8,10e-7 8.5678612,-7.049556 8.5678612,-7.049556 0.825495,-0.683682 2.569434,-0.118316 2.418275,1.384804 -0.225591,2.243266 0.09704,3.321215 0.922097,5.052178 2.275388,4.773775 9.8328,-12.333881 26.249318,-10.695484 -0.847848,-1.48757 -2.036218,-3.155316 -3.53125,-4.371859 C 36.866972,13.000573 27.607995,6.1227791 27.607995,6.1227791 26.244584,5.10849 23.323901,5.9514388 24.59375,7.1875 z"
           style="opacity:0.51999996;fill:url(#radialGradient39177);fill-opacity:1;fill-rule:evenodd;stroke:none" />
      </g>
    </g>
  </g>
  <metadata
     id="metadata13">
    <rdf:RDF>
      <cc:Work>
        <dc:format>image/svg+xml</dc:format>
        <dc:type
           rdf:resource="http://purl.org/dc/dcmitype/StillImage" />
        <cc:license
           rdf:resource="http://creativecommons.org/licenses/publicdomain/" />
        <dc:publisher>
          <cc:Agent
             rdf:about="http://openclipart.org/">
            <dc:title>Openclipart</dc:title>
          </cc:Agent>
        </dc:publisher>
        <dc:title></dc:title>
        <dc:date>2013-02-04T14:03:30</dc:date>
        <dc:description>A simple command line icon.</dc:description>
        <dc:source>https://openclipart.org/detail/174814/command-line-by-rendon-174814</dc:source>
        <dc:creator>
          <cc:Agent>
            <dc:title>rendon</dc:title>
          </cc:Agent>
        </dc:creator>
        <dc:subject>
          <rdf:Bag>
            <rdf:li>Command line</rdf:li>
            <rdf:li>bash</rdf:li>
            <rdf:li>terminal</rdf:li>
          </rdf:Bag>
        </dc:subject>
      </cc:Work>
      <cc:License
         rdf:about="http://creativecommons.org/licenses/publicdomain/">
        <cc:permits
           rdf:resource="http://creativecommons.org/ns#Reproduction" />
        <cc:permits
           rdf:resource="http://creativecommons.org/ns#Distribution" />
        <cc:permits
           rdf:resource="http://creativecommons.org/ns#DerivativeWorks" />
      </cc:License>
    </rdf:RDF>
  </metadata>
</svg>
